<svg xmlns="http://www.w3.org/2000/svg" width="124" height="40"><g fill="none"><path fill="#000" d="M7.05 40h-.84c-.58 0-1.16-.06-1.74-.17a5.15 5.15 0 0 1-3.8-3.05 6.42 6.42 0 0 1-.5-1.7c-.1-.65-.15-1.3-.16-1.94L0 32.2V7.8s0-.71.01-.92c.01-.65.07-1.3.17-1.94.09-.6.25-1.17.5-1.71A5.56 5.56 0 0 1 2.93.73c.48-.27 1-.46 1.54-.56C5.04.07 5.63.01 6.2 0h111.6c.58 0 1.16.06 1.73.17a5.08 5.08 0 0 1 3.8 3.06c.24.54.41 1.11.5 1.7.1.65.15 1.3.16 1.96v26.24a14.2 14.2 0 0 1-.16 1.92c-.08.6-.25 1.18-.5 1.72a5.55 5.55 0 0 1-2.25 2.48 5 5 0 0 1-1.55.56c-.57.1-1.15.16-1.74.17H7.05V40z"/><path fill="#FFF" stroke="#FFF" stroke-width=".2" d="m44.74 26.63-1.16 3.5H42.1L45.88 19h1.74l3.8 11.14h-1.54l-1.19-3.5h-3.95zm3.65-1.13-1.09-3.2c-.24-.72-.4-1.39-.58-2.03h-.03c-.17.66-.35 1.33-.56 2.02l-1.1 3.22h3.36zm4.14-.76c0-1.02-.03-1.85-.07-2.6h1.3l.08 1.36h.03c.59-1 1.68-1.6 2.84-1.55 1.93 0 3.39 1.64 3.39 4.07 0 2.87-1.75 4.3-3.64 4.3A2.8 2.8 0 0 1 54 29.06h-.04v4.35h-1.43v-8.67zm1.43 2.14a2.25 2.25 0 0 0 2.25 2.3c1.54 0 2.44-1.26 2.44-3.1 0-1.6-.85-2.97-2.39-2.97a2.53 2.53 0 0 0-2.3 2.4v1.37zm7.25-2.14c0-1.02-.03-1.85-.07-2.6h1.3l.08 1.36h.03c.59-1 1.68-1.6 2.85-1.55 1.93 0 3.38 1.64 3.38 4.07 0 2.87-1.75 4.3-3.63 4.3a2.8 2.8 0 0 1-2.47-1.26h-.03v4.35h-1.44v-8.67zm1.43 2.14a2.25 2.25 0 0 0 2.25 2.3c1.54 0 2.44-1.26 2.44-3.1 0-1.6-.85-2.97-2.39-2.97a2.53 2.53 0 0 0-2.3 2.4v1.37zm16.08 2.76c-1.1.4-2.26.6-3.43.61a5.73 5.73 0 0 1-4.16-1.47 5.7 5.7 0 0 1-1.56-4.15c.02-3.32 2.3-5.76 6.04-5.76a6.9 6.9 0 0 1 2.78.52l-.35 1.17a5.75 5.75 0 0 0-2.46-.48c-2.72 0-4.49 1.69-4.49 4.48 0 2.8 1.7 4.5 4.3 4.5a4.7 4.7 0 0 0 1.92-.29v-3.33h-2.27v-1.16h3.67v5.36zm6.28.5-.12-1.02h-.05a2.97 2.97 0 0 1-2.44 1.2c-1.63 0-2.45-1.14-2.45-2.3 0-1.94 1.72-3 4.81-2.98v-.16c0-.66-.18-1.85-1.82-1.85-.73 0-1.45.2-2.08.6l-.33-.96c.8-.48 1.7-.73 2.63-.71 2.45 0 3.04 1.67 3.04 3.27v3c-.01.63.03 1.27.13 1.9H85zm-.22-4.09c-1.6-.03-3.39.25-3.39 1.8a1.3 1.3 0 0 0 1.38 1.4c.86.02 1.65-.52 1.93-1.34.05-.15.08-.3.08-.46v-1.4zm2.88-7.65h1.45v11.73h-1.45zm3.9 0h1.46v11.73h-1.46zm4.28 8c.04 1.97 1.3 2.78 2.75 2.78.76.02 1.51-.12 2.21-.42l.25 1.04c-.84.36-1.75.52-2.66.5-2.47 0-3.94-1.62-3.94-4.03s1.43-4.32 3.75-4.32c2.62 0 3.31 2.3 3.31 3.77 0 .23-.02.45-.05.68h-5.61zm4.27-1.04c.02-.93-.38-2.37-2.01-2.37-1.48 0-2.12 1.36-2.24 2.37h4.25zm2.78-.73c0-.94-.02-1.75-.07-2.5h1.27l.05 1.57h.07c.36-1.06 1.24-1.75 2.22-1.75.14 0 .27.02.41.05v1.37a2.13 2.13 0 0 0-.5-.05c-1.02 0-1.75.78-1.95 1.87-.04.22-.06.45-.06.68v4.26h-1.44v-5.5zm6.93-2.5 1.75 4.73c.18.53.38 1.16.51 1.64h.03c.15-.48.32-1.1.51-1.67l1.6-4.7h1.54l-2.18 5.7c-1.04 2.75-1.75 4.16-2.75 5.01-.5.47-1.12.8-1.78.95l-.37-1.22a4.39 4.39 0 0 0 2.61-2.68 1.24 1.24 0 0 0-.1-.38l-2.96-7.38h1.59zM48.25 11.02c0 1.98-1.2 3.03-2.66 3.03-1.52 0-2.59-1.18-2.59-2.94 0-1.82 1.14-3.01 2.67-3.01s2.58 1.21 2.58 2.92zm-4.46.1c0 1.22.67 2.32 1.84 2.32s1.84-1.09 1.84-2.39c0-1.14-.6-2.34-1.83-2.34-1.24 0-1.85 1.14-1.85 2.4zm6.45-2.28H48.5V8.2h4.27v.64H51v5.11h-.75zm3.9-.64v2.55h.23l1.97-2.55h.9l-2.18 2.64c.95.12 1.31.7 1.61 1.48.18.56.4 1.1.63 1.63h-.8c-.2-.44-.38-.89-.52-1.35-.26-.76-.63-1.28-1.6-1.28h-.24v2.63h-.75V8.2h.75zm3.88.07c.47-.08.94-.11 1.42-.11.74 0 1.27.17 1.6.48.34.3.52.74.5 1.2.03.45-.13.9-.44 1.23-.48.44-1.11.67-1.76.63-.2 0-.4-.01-.6-.05v2.3H58l.02-5.68zm.74 2.77c.2.05.4.07.61.06.9 0 1.45-.43 1.45-1.23 0-.79-.54-1.12-1.36-1.12-.24 0-.47.01-.7.06v2.23zm8.64-.02c0 1.98-1.2 3.03-2.66 3.03-1.52 0-2.59-1.18-2.59-2.94 0-1.82 1.14-3.01 2.67-3.01s2.58 1.21 2.58 2.92zm-4.46.1c0 1.22.67 2.32 1.83 2.32 1.17 0 1.85-1.08 1.85-2.4 0-1.14-.6-2.34-1.84-2.34s-1.84 1.15-1.84 2.41zm6.13-2.92v2.42c0 .92-.01 1.67-.07 2.44h.02c.3-.6.65-1.23 1.07-1.9l1.87-2.97h.74v5.76H72V11.5c0-.93 0-1.6.07-2.34h-.03c-.31.67-.67 1.32-1.07 1.94l-1.81 2.85h-.8V8.2h.71zm.94-1.2c.03.27.12.53.53.53.42 0 .5-.24.52-.53h.58c-.05.56-.39.91-1.11.91S69.5 7.56 69.46 7h.55zm5.06 1.84h-1.73V8.2h4.27v.64h-1.76v5.11h-.75zm6.13 2.42h-2.23v2.07h2.49v.62h-3.24V8.2h3.12v.62h-2.38v1.82h2.24zm3.03-2.98c.45-.08.9-.12 1.36-.12.74 0 1.22.13 1.57.42.32.24.5.62.48 1.01-.02.59-.4 1.1-.97 1.27v.01c.69.14 1.18.74 1.19 1.45 0 .43-.17.85-.49 1.15-.4.36-1.05.53-1.99.53-.38 0-.77-.02-1.15-.07V8.28zm.74 2.35h.68c.8 0 1.24-.4 1.24-.96 0-.67-.5-.94-1.26-.94-.22 0-.44.01-.66.05v1.86zm0 2.76c.21.03.42.04.64.03.76 0 1.47-.28 1.47-1.12 0-.8-.67-1.1-1.48-1.1h-.62v2.19z"/><rect width="25.33" height="25.33" x="8.8" y="7.33" fill="#C8102E" rx="6"/><path fill="#FFF" d="M13.82 20h.67v3.31h-.67v-1.34H12.3v1.34h-.67V20h.67v1.33h1.52V20zm3.78 1.9c0 .53-.26.82-.75.82-.48 0-.76-.3-.76-.85V20h-.67v1.9c0 .93.52 1.46 1.42 1.46s1.44-.53 1.44-1.49V20h-.68v1.9zm7.77.38L24.62 20h-.56l-.75 2.28-.73-2.28h-.71l1.15 3.31h.56l.75-2.17.76 2.17h.56L26.8 20h-.7l-.73 2.28zm2.63-.4h1.23v-.6H28v-.67h1.78V20h-2.44v3.3h2.5v-.6H28v-.82zm2.64 1.43h.67V20h-.67v3.3zm-11.04-.69-.3.69h-.68L20.06 20h.6l1.45 3.31h-.7l-.28-.69H19.6zm.25-.6h1.01l-.5-1.18-.5 1.18zm1.62-6.24a4.22 4.22 0 0 1-4.22-4.21h.6a3.62 3.62 0 0 0 7.24 0h.6a4.22 4.22 0 0 1-4.22 4.21z"/></g></svg>