<svg xmlns="http://www.w3.org/2000/svg" width="121" height="40"><g fill="none"><path fill="#000" d="m7.77 40-.93-.01a12.78 12.78 0 0 1-1.92-.17 5.96 5.96 0 0 1-1.7-.58 5.55 5.55 0 0 1-1.43-1.06 5.56 5.56 0 0 1-1.05-1.46 6.06 6.06 0 0 1-.55-1.73 13.22 13.22 0 0 1-.17-1.96L0 32.07V7.91l.01-.93c.01-.66.07-1.31.18-1.96a6.1 6.1 0 0 1 .55-1.74 5.62 5.62 0 0 1 1.04-1.46c.43-.43.91-.79 1.44-1.07a5.9 5.9 0 0 1 1.7-.57A12.68 12.68 0 0 1 6.84.01L7.77 0h105.45l.94.01c.64.01 1.28.07 1.9.17a6.01 6.01 0 0 1 1.72.58 5.8 5.8 0 0 1 2.48 2.53c.27.54.45 1.12.55 1.72a13.87 13.87 0 0 1 .18 2.9l.01 1.15V32.07l-.01.97a13.56 13.56 0 0 1-.18 1.94 6.08 6.08 0 0 1-.55 1.74 5.73 5.73 0 0 1-1.04 1.45 5.56 5.56 0 0 1-1.44 1.07 5.94 5.94 0 0 1-1.71.58c-.64.1-1.28.16-1.92.17h-.92l-1.11.01H7.77z"/><g fill="#FFF"><path d="M24.5 19.92a5.08 5.08 0 0 1 2.43-4.26 5.2 5.2 0 0 0-4.1-2.2c-1.72-.19-3.39 1.02-4.27 1.02-.9 0-2.24-1.01-3.7-.98a5.45 5.45 0 0 0-4.59 2.8c-1.98 3.43-.5 8.48 1.4 11.25.95 1.36 2.06 2.88 3.52 2.83 1.42-.06 1.95-.9 3.67-.9 1.7 0 2.2.9 3.68.86 1.53-.02 2.49-1.36 3.4-2.73a11.24 11.24 0 0 0 1.56-3.17 4.9 4.9 0 0 1-3-4.52zm-2.8-8.3a5 5 0 0 0 1.15-3.57 5.08 5.08 0 0 0-3.29 1.7 4.75 4.75 0 0 0-1.17 3.45 4.2 4.2 0 0 0 3.32-1.57zM42.5 26.94h-4.86l-1.17 3.44h-2.05l4.6-12.74h2.13l4.6 12.74h-2.1l-1.16-3.44zm-4.36-1.59h3.85l-1.9-5.59h-.05l-1.9 5.59zm17.54.39c0 2.88-1.55 4.74-3.88 4.74a3.15 3.15 0 0 1-2.92-1.63h-.04v4.6h-1.9V21.1h1.84v1.55h.03A3.3 3.3 0 0 1 51.77 21c2.36 0 3.9 1.86 3.9 4.74zm-1.96 0c0-1.88-.97-3.12-2.45-3.12-1.46 0-2.44 1.26-2.44 3.12 0 1.87.98 3.12 2.44 3.12 1.48 0 2.45-1.23 2.45-3.12zm12.18 0c0 2.88-1.55 4.74-3.88 4.74a3.15 3.15 0 0 1-2.92-1.63h-.04v4.6h-1.9V21.1H59v1.55h.03A3.3 3.3 0 0 1 62 21c2.36 0 3.9 1.86 3.9 4.74zm-1.96 0c0-1.88-.97-3.12-2.45-3.12-1.46 0-2.44 1.26-2.44 3.12 0 1.87.98 3.12 2.44 3.12 1.48 0 2.45-1.23 2.45-3.12zm8.71 1.1c.14 1.26 1.37 2.08 3.05 2.08 1.6 0 2.76-.83 2.76-1.96 0-1-.7-1.58-2.35-1.99l-1.65-.4c-2.34-.56-3.42-1.66-3.42-3.43 0-2.2 1.91-3.7 4.63-3.7 2.7 0 4.54 1.5 4.6 3.7h-1.92c-.12-1.27-1.17-2.04-2.7-2.04-1.54 0-2.6.78-2.6 1.9 0 .9.68 1.44 2.32 1.84l1.4.35c2.62.61 3.7 1.66 3.7 3.53 0 2.38-1.9 3.87-4.91 3.87-2.83 0-4.73-1.45-4.86-3.76h1.95zM84.6 18.9v2.2h1.76v1.5H84.6v5.12c0 .8.35 1.17 1.13 1.17.2 0 .42-.02.62-.05v1.5a5.23 5.23 0 0 1-1.05.1c-1.88 0-2.62-.71-2.62-2.51V22.6h-1.35v-1.5h1.35v-2.2h1.92zm2.79 6.84c0-2.92 1.72-4.76 4.4-4.76 2.7 0 4.4 1.84 4.4 4.76 0 2.93-1.7 4.76-4.4 4.76s-4.4-1.83-4.4-4.76zm6.86 0c0-2-.91-3.19-2.46-3.19-1.54 0-2.46 1.2-2.46 3.19 0 2.01.92 3.18 2.46 3.18 1.55 0 2.46-1.17 2.46-3.18zm3.52-4.64h1.81v1.57h.05a2.21 2.21 0 0 1 2.23-1.67c.22 0 .44.02.66.07v1.78a2.67 2.67 0 0 0-.86-.11 1.92 1.92 0 0 0-1.99 2.13v5.51h-1.9V21.1zm13.53 6.55c-.25 1.69-1.9 2.85-4 2.85-2.7 0-4.37-1.81-4.37-4.72 0-2.91 1.68-4.8 4.3-4.8 2.57 0 4.18 1.76 4.18 4.58v.65h-6.56v.12a2.42 2.42 0 0 0 2.5 2.63 2.1 2.1 0 0 0 2.14-1.3h1.81zm-6.44-2.77h4.64a2.23 2.23 0 0 0-2.27-2.36 2.35 2.35 0 0 0-2.37 2.36z"/></g><path d="M36.78 10.64h.82a1.03 1.03 0 0 0 1.16-.97c0-.56-.43-.93-1.15-.93a1.09 1.09 0 0 0-1.23.96h-.9a1.92 1.92 0 0 1 2.16-1.8c1.2 0 2.05.68 2.05 1.65a1.42 1.42 0 0 1-1.1 1.4v.08a1.43 1.43 0 0 1 1.35 1.48 2.04 2.04 0 0 1-2.28 1.82 2.03 2.03 0 0 1-2.3-1.81h.91c.06.58.6.96 1.39.96.8 0 1.3-.43 1.3-1.03 0-.6-.48-.97-1.33-.97h-.85v-.84zm4.2 2.23c0-.83.62-1.3 1.72-1.38l1.25-.07v-.4c0-.49-.32-.76-.95-.76-.5 0-.86.19-.96.51h-.88c.1-.8.84-1.3 1.89-1.3 1.15 0 1.8.58 1.8 1.55v3.16h-.87v-.65h-.07a1.55 1.55 0 0 1-1.39.72 1.4 1.4 0 0 1-1.54-1.38zm2.97-.4v-.38l-1.13.07c-.63.05-.92.26-.92.67 0 .41.36.66.85.66a1.09 1.09 0 0 0 1.2-1.01zm3.33-2.14v3.85h-.92V9.56h3.05v.77zm7.65 1.54c0 1.46-.74 2.38-1.9 2.38a1.5 1.5 0 0 1-1.43-.77h-.07v2.23h-.91V9.56h.87v.76h.07a1.6 1.6 0 0 1 1.45-.84c1.18 0 1.92.92 1.92 2.39zm-.94 0c0-.98-.46-1.57-1.23-1.57s-1.25.6-1.25 1.57c0 .96.48 1.57 1.24 1.57.78 0 1.24-.6 1.24-1.57zm2.15 3.96v-.78l.3.01a.79.79 0 0 0 .84-.64l.06-.23-1.67-4.63h1l1.15 3.67h.08l1.15-3.67h.97l-1.73 4.8c-.39 1.13-.83 1.5-1.77 1.5-.08 0-.3-.01-.38-.03zm4.59-2.96h.9c.1.4.47.62 1 .62.61 0 .99-.27.99-.69 0-.44-.34-.65-.98-.65h-.7v-.71h.69c.55 0 .83-.21.83-.6 0-.34-.27-.6-.83-.6-.51 0-.89.22-.95.58h-.87a1.62 1.62 0 0 1 1.82-1.35c1.1 0 1.72.5 1.72 1.28a.95.95 0 0 1-.73.94v.07c.52.07.91.52.9 1.04 0 .88-.74 1.46-1.88 1.46-1.01 0-1.83-.46-1.91-1.4zm5.1 1.3V9.57h.91v3.18h.07l2.13-3.18h.9v4.62h-.9v-3.2h-.06l-2.14 3.2zm9-3.84h-1.46v3.85h-.91v-3.85H71v-.77h3.82zm4.9 2.6a1.88 1.88 0 0 1-2 1.34 2.1 2.1 0 0 1-2.13-2.39 2.13 2.13 0 0 1 2.13-2.41c1.28 0 2.06.88 2.06 2.33v.32h-3.26v.05a1.22 1.22 0 0 0 1.23 1.32c.44.05.88-.17 1.1-.56h.87zm-3.2-1.49h2.33a1.11 1.11 0 0 0-1.14-1.2 1.18 1.18 0 0 0-1.2 1.2zm7.07-1.88h2.08c.9 0 1.43.46 1.43 1.17a1 1 0 0 1-.78.98v.07c.56.04 1 .5.99 1.07 0 .8-.6 1.33-1.62 1.33h-2.1V9.56zm.9.7v1.2h.9c.55 0 .82-.22.82-.6 0-.37-.23-.6-.72-.6h-1zm0 1.86v1.36h1.08c.54 0 .83-.24.83-.68 0-.46-.33-.68-.94-.68h-.97z" fill="#FFF"/></g></svg>