<svg width="173" height="40" viewBox="0 0 173 40" fill="none" xmlns="http://www.w3.org/2000/svg">
<path d="M1.5299e-06 40L0 5.00001C-1.2071e-07 2.23858 2.23857 7.24565e-06 5 7.12494e-06L168 0C170.761 -1.207e-07 173 2.23857 173 5V40H1.5299e-06Z" fill="black"/>
<path d="M34 7V33.5Z" fill="black"/>
<path d="M34 7V33.5" stroke="white" stroke-opacity="0.4" stroke-width="2"/>
<path d="M20.707 19.5444L20.1248 21.3305C21.9893 21.8694 23.2632 23.0361 23.2632 25.0722C23.2632 27.5305 21.2975 29.5444 17.0484 29.5444C12.0399 29.5444 10.032 26.9361 9.76489 24.7194H7.79639C8.04948 27.5611 10.3611 31.25 17.0905 31.25C22.1299 31.25 25.2008 28.6972 25.2008 24.9417C25.198 21.7528 23.1254 20.2028 20.707 19.5444Z" fill="white"/>
<path d="M14.9195 20.5556C15.2654 20.6 16.3481 20.7444 17.3042 20.8694L16.9246 22.175L15.1698 21.95L16.9246 27.3472V27.35L20.9572 14.9472H19.0281L17.8273 19.075C17.2086 18.9944 16.5084 18.9056 15.9516 18.8333L14.8211 14.9472H12.892L14.0618 18.55C11.9977 18.1028 10.6029 17.0722 10.6029 14.9111C10.6029 12.3528 13.1169 10.4444 16.5252 10.4444C20.7997 10.4444 22.6332 12.6806 23.2238 14.95H25.1698C24.7142 12.3722 22.6473 8.75 16.5281 8.75H16.514C11.7193 8.75 8.65967 11.6722 8.65967 15.0278C8.65967 19.0639 11.9105 20.1583 14.9195 20.5556Z" fill="white"/>
<path d="M48.7105 25.135C47.9725 25.135 47.293 25.0135 46.672 24.7705C46.051 24.5275 45.511 24.19 45.052 23.758C44.593 23.317 44.2375 22.804 43.9855 22.219C43.7335 21.625 43.6075 20.977 43.6075 20.275C43.6075 19.573 43.7335 18.9295 43.9855 18.3445C44.2375 17.7505 44.593 17.2375 45.052 16.8055C45.511 16.3645 46.051 16.0225 46.672 15.7795C47.293 15.5365 47.968 15.415 48.697 15.415C49.435 15.415 50.11 15.5365 50.722 15.7795C51.343 16.0225 51.883 16.3645 52.342 16.8055C52.801 17.2375 53.1565 17.7505 53.4085 18.3445C53.6605 18.9295 53.7865 19.573 53.7865 20.275C53.7865 20.977 53.6605 21.625 53.4085 22.219C53.1565 22.813 52.801 23.326 52.342 23.758C51.883 24.19 51.343 24.5275 50.722 24.7705C50.11 25.0135 49.4395 25.135 48.7105 25.135ZM48.697 23.596C49.174 23.596 49.615 23.515 50.02 23.353C50.425 23.191 50.776 22.9615 51.073 22.6645C51.37 22.3585 51.5995 22.0075 51.7615 21.6115C51.9325 21.2065 52.018 20.761 52.018 20.275C52.018 19.789 51.9325 19.348 51.7615 18.952C51.5995 18.547 51.37 18.196 51.073 17.899C50.776 17.593 50.425 17.359 50.02 17.197C49.615 17.035 49.174 16.954 48.697 16.954C48.22 16.954 47.779 17.035 47.374 17.197C46.978 17.359 46.627 17.593 46.321 17.899C46.024 18.196 45.79 18.547 45.619 18.952C45.457 19.348 45.376 19.789 45.376 20.275C45.376 20.752 45.457 21.193 45.619 21.598C45.79 22.003 46.024 22.3585 46.321 22.6645C46.618 22.9615 46.969 23.191 47.374 23.353C47.779 23.515 48.22 23.596 48.697 23.596ZM57.5795 25L57.5795 16.603L57.998 17.035L54.461 17.035L54.461 15.55L62.453 15.55L62.453 17.035H58.916L59.321 16.603L59.321 25H57.5795ZM63.0351 24.0685L63.6021 22.786C64.0071 23.065 64.4481 23.281 64.9251 23.434C65.4111 23.578 65.8926 23.6545 66.3696 23.6635C66.8466 23.6725 67.2786 23.6185 67.6656 23.5015C68.0616 23.3845 68.3766 23.209 68.6106 22.975C68.8446 22.741 68.9616 22.4485 68.9616 22.0975C68.9616 21.6745 68.7861 21.3595 68.4351 21.1525C68.0931 20.9365 67.6251 20.8285 67.0311 20.8285H64.8306L64.8306 19.4515H66.8961C67.4271 19.4515 67.8366 19.3435 68.1246 19.1275C68.4216 18.9115 68.5701 18.619 68.5701 18.25C68.5701 17.944 68.4711 17.692 68.2731 17.494C68.0841 17.296 67.8231 17.1475 67.4901 17.0485C67.1661 16.9495 66.7971 16.9045 66.3831 16.9135C65.9781 16.9135 65.5551 16.9765 65.1141 17.1025C64.6731 17.2195 64.2546 17.395 63.8586 17.629L63.3051 16.2115C63.8991 15.8965 64.5201 15.676 65.1681 15.55C65.8251 15.424 66.4596 15.388 67.0716 15.442C67.6836 15.496 68.2326 15.6355 68.7186 15.8605C69.2136 16.0855 69.6096 16.3825 69.9066 16.7515C70.2036 17.1115 70.3521 17.539 70.3521 18.034C70.3521 18.484 70.2306 18.8845 69.9876 19.2355C69.7536 19.5775 69.4296 19.843 69.0156 20.032C68.6016 20.221 68.1201 20.3155 67.5711 20.3155L67.6386 19.8835C68.2596 19.8835 68.7996 19.9915 69.2586 20.2075C69.7266 20.4145 70.0866 20.7025 70.3386 21.0715C70.5996 21.4405 70.7301 21.868 70.7301 22.354C70.7301 22.813 70.6131 23.2225 70.3791 23.5825C70.1451 23.9335 69.8256 24.2305 69.4206 24.4735C69.0156 24.7075 68.5521 24.883 68.0301 25C67.5081 25.108 66.9591 25.1485 66.3831 25.1215C65.8071 25.0945 65.2311 24.9955 64.6551 24.8245C64.0881 24.6535 63.5481 24.4015 63.0351 24.0685ZM77.0941 18.7495C78.2191 18.7495 79.0876 19.0015 79.6996 19.5055C80.3116 20.0095 80.6176 20.7655 80.6176 21.7735C80.6176 22.8355 80.2801 23.641 79.6051 24.19C78.9391 24.73 78.0076 25 76.8106 25H72.7471L72.7471 15.55H74.4751L74.4751 18.7495H77.0941ZM76.7296 23.65C77.4046 23.65 77.9266 23.4925 78.2956 23.1775C78.6736 22.8625 78.8626 22.4035 78.8626 21.8005C78.8626 21.2065 78.6781 20.7745 78.3091 20.5045C77.9401 20.2255 77.4136 20.086 76.7296 20.086H74.4751L74.4751 23.65H76.7296ZM81.9811 25L81.9811 15.55H83.7091L83.7091 25H81.9811ZM86.379 25L86.379 15.55H90.6045C91.6665 15.55 92.4945 15.7615 93.0885 16.1845C93.6825 16.5985 93.9795 17.197 93.9795 17.98C93.9795 18.754 93.696 19.3525 93.129 19.7755C92.562 20.1895 91.815 20.3965 90.888 20.3965L91.131 19.9105C92.184 19.9105 92.9985 20.122 93.5745 20.545C94.1505 20.968 94.4385 21.58 94.4385 22.381C94.4385 23.2 94.137 23.8435 93.534 24.3115C92.931 24.7705 92.04 25 90.861 25H86.379ZM88.107 23.65H90.807C91.419 23.65 91.8825 23.5375 92.1975 23.3125C92.5125 23.0785 92.67 22.723 92.67 22.246C92.67 21.769 92.5125 21.4225 92.1975 21.2065C91.8825 20.9815 91.419 20.869 90.807 20.869H88.107L88.107 23.65ZM88.107 19.5865H90.456C91.023 19.5865 91.455 19.474 91.752 19.249C92.049 19.015 92.1975 18.682 92.1975 18.25C92.1975 17.8 92.049 17.4625 91.752 17.2375C91.455 17.0125 91.023 16.9 90.456 16.9H88.107L88.107 19.5865ZM104.556 25.135C103.818 25.135 103.139 25.0135 102.518 24.7705C101.897 24.5275 101.357 24.19 100.898 23.758C100.439 23.317 100.083 22.804 99.8312 22.219C99.5792 21.625 99.4532 20.977 99.4532 20.275C99.4532 19.573 99.5792 18.9295 99.8312 18.3445C100.083 17.7505 100.439 17.2375 100.898 16.8055C101.357 16.3645 101.897 16.0225 102.518 15.7795C103.139 15.5365 103.814 15.415 104.543 15.415C105.281 15.415 105.956 15.5365 106.568 15.7795C107.189 16.0225 107.729 16.3645 108.188 16.8055C108.647 17.2375 109.002 17.7505 109.254 18.3445C109.506 18.9295 109.632 19.573 109.632 20.275C109.632 20.977 109.506 21.625 109.254 22.219C109.002 22.813 108.647 23.326 108.188 23.758C107.729 24.19 107.189 24.5275 106.568 24.7705C105.956 25.0135 105.285 25.135 104.556 25.135ZM104.543 23.596C105.02 23.596 105.461 23.515 105.866 23.353C106.271 23.191 106.622 22.9615 106.919 22.6645C107.216 22.3585 107.445 22.0075 107.607 21.6115C107.778 21.2065 107.864 20.761 107.864 20.275C107.864 19.789 107.778 19.348 107.607 18.952C107.445 18.547 107.216 18.196 106.919 17.899C106.622 17.593 106.271 17.359 105.866 17.197C105.461 17.035 105.02 16.954 104.543 16.954C104.066 16.954 103.625 17.035 103.22 17.197C102.824 17.359 102.473 17.593 102.167 17.899C101.87 18.196 101.636 18.547 101.465 18.952C101.303 19.348 101.222 19.789 101.222 20.275C101.222 20.752 101.303 21.193 101.465 21.598C101.636 22.003 101.87 22.3585 102.167 22.6645C102.464 22.9615 102.815 23.191 103.22 23.353C103.625 23.515 104.066 23.596 104.543 23.596ZM119.65 25.135C118.93 25.135 118.26 25.018 117.639 24.784C117.027 24.541 116.491 24.2035 116.032 23.7715C115.582 23.3305 115.231 22.813 114.979 22.219C114.727 21.625 114.601 20.977 114.601 20.275C114.601 19.573 114.727 18.925 114.979 18.331C115.231 17.737 115.587 17.224 116.046 16.792C116.505 16.351 117.04 16.0135 117.652 15.7795C118.264 15.5365 118.935 15.415 119.664 15.415C120.438 15.415 121.144 15.55 121.783 15.82C122.422 16.081 122.962 16.4725 123.403 16.9945L122.269 18.061C121.927 17.692 121.545 17.4175 121.122 17.2375C120.699 17.0485 120.24 16.954 119.745 16.954C119.25 16.954 118.795 17.035 118.381 17.197C117.976 17.359 117.621 17.5885 117.315 17.8855C117.018 18.1825 116.784 18.5335 116.613 18.9385C116.451 19.3435 116.37 19.789 116.37 20.275C116.37 20.761 116.451 21.2065 116.613 21.6115C116.784 22.0165 117.018 22.3675 117.315 22.6645C117.621 22.9615 117.976 23.191 118.381 23.353C118.795 23.515 119.25 23.596 119.745 23.596C120.24 23.596 120.699 23.506 121.122 23.326C121.545 23.137 121.927 22.8535 122.269 22.4755L123.403 23.5555C122.962 24.0685 122.422 24.46 121.783 24.73C121.144 25 120.433 25.135 119.65 25.135ZM123.634 25L127.886 15.55H129.614L133.88 25H132.044L128.386 16.4815H129.088L125.443 25H123.634ZM125.591 22.813L126.064 21.436H131.167L131.639 22.813H125.591ZM135.343 25L135.343 15.55H137.071L137.071 22.2595L142.147 15.55H143.78L143.78 25H142.052L142.052 18.304L136.976 25H135.343ZM139.541 14.9155C138.731 14.9155 138.119 14.7445 137.705 14.4025C137.3 14.0605 137.093 13.579 137.084 12.958L138.313 12.958C138.322 13.291 138.43 13.5475 138.637 13.7275C138.853 13.9075 139.154 13.9975 139.541 13.9975C139.928 13.9975 140.23 13.9075 140.446 13.7275C140.671 13.5475 140.788 13.291 140.797 12.958H142.012C142.003 13.579 141.791 14.0605 141.377 14.4025C140.963 14.7445 140.351 14.9155 139.541 14.9155ZM148.414 25L148.414 16.603L148.833 17.035H145.296L145.296 15.55L153.288 15.55L153.288 17.035H149.751L150.156 16.603L150.156 25H148.414ZM156.422 19.4785H161.12L161.12 20.923L156.422 20.923L156.422 19.4785ZM156.557 23.5285L161.889 23.5285L161.889 25L154.802 25L154.802 15.55L161.7 15.55L161.7 17.0215H156.557L156.557 23.5285Z" fill="white"/>
</svg>
